<svg xmlns="http://www.w3.org/2000/svg" xmlns:xlink="http://www.w3.org/1999/xlink" viewBox="0 0 741 477"><defs><style>.cls-1,.cls-18,.cls-5{fill:#f2f7fc;}.cls-13,.cls-17,.cls-2{fill:#fff;}.cls-16,.cls-17,.cls-2,.cls-24,.cls-25,.cls-26,.cls-27,.cls-28,.cls-3,.cls-32,.cls-39,.cls-4,.cls-5,.cls-51,.cls-6,.cls-7,.cls-8,.cls-9{stroke:#1a1817;}.cls-16,.cls-17,.cls-2,.cls-24,.cls-25,.cls-26,.cls-28,.cls-3,.cls-32,.cls-39,.cls-4,.cls-45,.cls-5,.cls-51,.cls-6,.cls-7,.cls-8,.cls-9{stroke-linecap:round;stroke-linejoin:round;}.cls-3,.cls-41{fill:#2142a6;}.cls-4,.cls-46{fill:#f2caa7;}.cls-18,.cls-25,.cls-5{mix-blend-mode:multiply;}.cls-20,.cls-6{fill:#2ee574;}.cls-29,.cls-7{fill:#e1fae8;}.cls-33,.cls-8{fill:#2b65d9;}.cls-27,.cls-36,.cls-9{fill:#e6e4e3;}.cls-10{isolation:isolate;}.cls-11{clip-path:url(#clip-path);}.cls-12,.cls-24{fill:#1a1817;}.cls-14{clip-path:url(#clip-path-2);}.cls-15{fill:#f0efee;}.cls-16,.cls-25,.cls-26,.cls-45{fill:none;}.cls-17{stroke-width:4px;}.cls-19{clip-path:url(#clip-path-3);}.cls-21{clip-path:url(#clip-path-4);}.cls-22{fill:#2fd36a;}.cls-23{clip-path:url(#clip-path-5);}.cls-26{stroke-width:2px;}.cls-27{stroke-miterlimit:10;}.cls-28{fill:#13c265;}.cls-30{clip-path:url(#clip-path-6);}.cls-31{fill:#d8f5dd;}.cls-32{fill:#f5f3f2;}.cls-34{clip-path:url(#clip-path-7);}.cls-35{fill:#1d44be;}.cls-37{clip-path:url(#clip-path-8);}.cls-38{fill:#d7d5d4;}.cls-39{fill:#73706f;}.cls-40{clip-path:url(#clip-path-9);}.cls-42{clip-path:url(#clip-path-10);}.cls-43{fill:#132a81;}.cls-44{clip-path:url(#clip-path-11);}.cls-45{stroke:#f5a345;}.cls-47{clip-path:url(#clip-path-12);}.cls-48{fill:#e1b58f;}.cls-49{clip-path:url(#clip-path-13);}.cls-50{clip-path:url(#clip-path-14);}.cls-51{fill:#faf8f7;}</style><clipPath id="clip-path"><rect class="cls-1" x="187.78" y="36.82" width="331.19" height="233.49"/></clipPath><clipPath id="clip-path-2"><path class="cls-2" d="M350.18,291a68.4,68.4,0,0,0-114,0c-1.07,1.6-2.07,3.26-3,5a2,2,0,0,1-3.74-1V96.56a2,2,0,0,1,2-2H343.83a2,2,0,0,1,1.73,1l62.88,108.73a2,2,0,0,1,.27,1V331.52a2,2,0,0,1-2,2l-43.15-.1a2,2,0,0,1-2-2.08q.06-1.21.06-2.46A68.08,68.08,0,0,0,350.18,291Z"/></clipPath><clipPath id="clip-path-3"><path class="cls-5" d="M375,209.14l-125-6.36a2,2,0,0,1-1.9-2V113.07a2,2,0,0,1,2-2h75.54a2,2,0,0,1,1.77,1.07l49.48,94.07A2,2,0,0,1,375,209.14Z"/></clipPath><clipPath id="clip-path-4"><path class="cls-6" d="M292.8,170.49s12.6,12.07,13.67,12.07c.88,0,4.61-11.36,6.67-15.52.07-.15.31-.53.36-.69a19.9,19.9,0,0,0,7.38,1.1c-.17.46-.33,1-.47,1.46-1.3,4.78-6.24,23.75-8.32,24.67-2.41,1.07-8.62.71-8.83.54-1.6-1.34-18.2-19.05-18.2-19.05Z"/></clipPath><clipPath id="clip-path-5"><path class="cls-6" d="M271.41,207.29s-1.6-6.53-2.94-13.49-3-20,11.08-31.59c1.21-1,4.14,5,11.59,6.62,1.62.36,12.66,13.2,13.19,26s.54,18,.54,18Z"/></clipPath><clipPath id="clip-path-6"><path class="cls-7" d="M457.47,117.64c6.31-3.33,12.17-5.41,10.82-24.34-.89-12.47-17.13-26.71-16.83-45,.26-15.58,14.33-18.77,21.09-25,16.19-14.95,24.88-2,33-2s17.59,1.05,23-3,14.83,40.59,10.77,56.82-16.93,30.4-6.76,40.57c8.11,8.11,14.88,1.35,23,6.76,3.18,2.12,13.52,13.52,5.41,31.1-10.42,22.58-29.75,31.11-27.05,44.63s17.58,12.17,14.88,25.7-12.17,12.17-16.23,24.34-10.82,25.7-29.75,25.7-58.16-17.58-37.87-58.16c2.74-5.47,10.82-20.28,4.06-29.75S434.51,129.78,457.47,117.64Z"/></clipPath><clipPath id="clip-path-7"><path class="cls-8" d="M484,246.51c-9.44-2.19-15.44,1.81-18.79,1.79-1.91,0-3.84-.4-4.6-4a9.14,9.14,0,0,0,1.47-2.7c2.46-7.16-2-16.33-2.23-16.55s-4.7,4.7-4.7,4.7-8.72-1.12-12.08,2.68c-3.81,4.33-2.9,8.27-2.9,8.27s-2,1.35-1.79,1.79.22,6.94,5.81,7.16c.55,0,1.14,0,1.75,0a14.77,14.77,0,0,0-3.54,7.81c-.89,5.59.23,7.6.23,7.6s-7.16-.9-7.16,4.25h60.82S498.47,249.87,484,246.51Z"/></clipPath><clipPath id="clip-path-8"><path class="cls-9" d="M399.07,367.8c7.95-5.32,55.71-18.55,57-23.84.85-3.4,2.8-11.81,3.41-13.62,4.85-14.44,8.51-23,28.94-24.18,23.82-1.39,199.65-2.64,206.84,0,10.22,3.76,8.51,43.27,6.81,58.47s-9.36,45.41-10.21,46.58-177.9-.49-231.41-4.08l-52.9,5.78Z"/></clipPath><clipPath id="clip-path-9"><path class="cls-9" d="M629.32,386.1c.45-4.11,2-13.78,12.23-13.78s57.68-19.67,57.68-19.67,8.71-3.45,8.51,5.1-1.81,42-2.66,44.52-3.41,6.81-14.47,11.92-38.31,22.13-63,21.28-205.14-6-208.54-6-17,1.7-20.43-2.55-1.71-57,0-58.74c1.9-1.9,9.36-3.4,10.21,5.11s1.7,26.39,11.92,27.24,180.45,5.11,185.56,4.25S627.32,404.58,629.32,386.1Z"/></clipPath><clipPath id="clip-path-10"><path class="cls-3" d="M612.61,383.16s9.18-15.29-9.25-48.63c-14.85-26.88-9.33-4.29-46,10-6.58,2.57-41.24,28.1-43,29.86s-9.65,10.52-1.75,18.42,45.61,4.38,57,2.63c3.81-.59,16.67-1.75,18.42-1.75s24.56-10.53,24.56-10.53"/></clipPath><clipPath id="clip-path-11"><path class="cls-3" d="M572,382.28c10.74-10.75,40.07-46.13,22.68-58.23s-28.73,11.35-31,31.76-6.22,25.51-4.54,25.72A122.1,122.1,0,0,0,572,382.28Z"/></clipPath><clipPath id="clip-path-12"><polygon class="cls-4" points="168.94 253.82 152.98 256.26 152.98 394.47 233.94 394.47 249.9 392.02 249.9 253.82 168.94 253.82"/></clipPath><clipPath id="clip-path-13"><polygon class="cls-4" points="96.79 324.06 80.82 326.2 80.82 405.45 158.36 406.16 174.32 403.88 174.32 324.06 96.79 324.06"/></clipPath><clipPath id="clip-path-14"><polygon class="cls-4" points="259.74 359.74 160.03 359.74 142.35 362.26 142.35 427.89 242.7 427.89 259.74 425.37 259.74 359.74"/></clipPath></defs><g class="cls-10"><g id="illustration"><rect class="cls-1" x="187.78" y="36.82" width="331.19" height="233.49"/><g class="cls-11"><path class="cls-12" d="M172.4,234H-150.21v69h-8v31.87h10.62s2.65,5.31,6.64,5.31H337v-6.64h36.71s20-62.37-28.74-85C298.05,226.82,172.4,234,172.4,234Z"/><path class="cls-13" d="M350.18,291a68.4,68.4,0,0,0-114,0c-1.07,1.6-2.07,3.26-3,5a2,2,0,0,1-3.74-1V96.56a2,2,0,0,1,2-2H343.83a2,2,0,0,1,1.73,1l62.88,108.73a2,2,0,0,1,.27,1V331.52a2,2,0,0,1-2,2l-43.15-.1a2,2,0,0,1-2-2.08q.06-1.21.06-2.46A68.08,68.08,0,0,0,350.18,291Z"/><g class="cls-14"><polygon class="cls-15" points="325.05 85.82 390.05 206.82 389.05 343.32 417.55 343.32 417.55 183.32 345.55 72.32 325.05 85.82"/></g><path class="cls-16" d="M350.18,291a68.4,68.4,0,0,0-114,0c-1.07,1.6-2.07,3.26-3,5a2,2,0,0,1-3.74-1V96.56a2,2,0,0,1,2-2H343.83a2,2,0,0,1,1.73,1l62.88,108.73a2,2,0,0,1,.27,1V331.52a2,2,0,0,1-2,2l-43.15-.1a2,2,0,0,1-2-2.08q.06-1.21.06-2.46A68.08,68.08,0,0,0,350.18,291Z"/><path class="cls-5" d="M408.71,205.72l-12.61-3-51.86-94.84s1.35-5.6,6-4.13Z"/><line class="cls-17" x1="410.7" y1="312.95" x2="357.37" y2="312.95"/><rect class="cls-2" x="390.12" y="248.56" width="21.24" height="29.21" rx="2"/><path class="cls-18" d="M375,209.14l-125-6.36a2,2,0,0,1-1.9-2V113.07a2,2,0,0,1,2-2h75.54a2,2,0,0,1,1.77,1.07l49.48,94.07A2,2,0,0,1,375,209.14Z"/><g class="cls-19"><path class="cls-12" d="M248.09,161.73s2.81-5.41,9.46-1.07c12.5,8.16,14,45.66,14,45.66l-23-3.26Z"/><path class="cls-2" d="M314.15,166.57c.66-1.82.18-4-.18-6.22-.27-1.61-.35-6.55.53-6.16s1,4.18,1.61,3.75c1.05-.69,2.51-8.83,3.41-7.78s-.61,6.49-.61,6.49,3.37-7.68,4.26-6.85-1.85,7.83-1.85,7.83,3.19-6.81,4.08-6-2.1,7-2.1,7,3-5.08,3.49-4.45-2.65,9.11-5.06,10.72a5.23,5.23,0,0,0-1.67,2.55A12.73,12.73,0,0,1,314.15,166.57Z"/><path class="cls-20" d="M292.8,170.49s12.6,12.07,13.67,12.07c.88,0,4.61-11.36,6.67-15.52.07-.15.31-.53.36-.69a19.9,19.9,0,0,0,7.38,1.1c-.17.46-.33,1-.47,1.46-1.3,4.78-6.24,23.75-8.32,24.67-2.41,1.07-8.62.71-8.83.54-1.6-1.34-18.2-19.05-18.2-19.05Z"/><g class="cls-21"><path class="cls-22" d="M317,166s-5.45,21.79-9.08,22.69-18.16-10-18.16-7.26,1.37,16.8,11.35,15.89,14.53,0,16.34-6.36,5.45-23.6,4.54-24.51S317,166,317,166Z"/></g><path class="cls-16" d="M292.8,170.49s12.6,12.07,13.67,12.07c.88,0,4.61-11.36,6.67-15.52.07-.15.31-.53.36-.69a19.9,19.9,0,0,0,7.38,1.1c-.17.46-.33,1-.47,1.46-1.3,4.78-6.24,23.75-8.32,24.67-2.41,1.07-8.62.71-8.83.54-1.6-1.34-18.2-19.05-18.2-19.05Z"/><path class="cls-2" d="M280.51,162c1.37-.75.54-6.15-.26-7.76l13.38,6.16s-3.75,7.22-1.88,9.1C295.78,173.47,277.07,163.86,280.51,162Z"/><path class="cls-20" d="M271.41,207.29s-1.6-6.53-2.94-13.49-3-20,11.08-31.59c1.21-1,4.14,5,11.59,6.62,1.62.36,12.66,13.2,13.19,26s.54,18,.54,18Z"/><g class="cls-23"><path class="cls-22" d="M275.27,185.93s0,4.54,1.81,7.26a43.68,43.68,0,0,0,11.81,10c6.35,3.63,16.34,6.73,16.34,5.45v-4.54S278.9,180.48,275.27,185.93Z"/></g><path class="cls-16" d="M271.41,207.29s-1.6-6.53-2.94-13.49-3-20,11.08-31.59c1.21-1,4.14,5,11.59,6.62,1.62.36,12.66,13.2,13.19,26s.54,18,.54,18Z"/><path class="cls-6" d="M273,169.18s9.37-8.3,18.73,5.35,19,21.15,21.95,20.88,18.73-.54,19.54-.81,4.28-2.14,4.28-2.14v8.07s-1.23.48-2.14.8c-1.19.42-21.84,8-24.25,7.75s-20-10-23.39-12.6c-4.06-3.11-12.85-10.44-13.65-11.78"/><path class="cls-2" d="M301.14,134.57c-.85-6.94-14.2-6-18.83-6.09s-5.42,5.46-5.67,10.23a32.78,32.78,0,0,0,.55,6.47l-.08-.09s-1.5-1.19-2.55-.22c-1.57,1.45-2.1,4.29.74,6.41,1.62,1.2,2.8.78,3.31.49a22.08,22.08,0,0,0,.84,2.69c.8,1.82,2.35,5.65,9.46,6.58s9.52-4.16,11.18-8.65S301.14,134.57,301.14,134.57Z"/><path class="cls-12" d="M280.15,133.25s-.75,9.3-2.93,12.11a27.76,27.76,0,0,1-.36-10.07C277.48,130.9,279.46,131.92,280.15,133.25Z"/><path class="cls-8" d="M301.2,136.61s-12.71-4.17-24.61-2.11c0,0,.7-10.76,13.23-9.69C302.84,125.93,301.2,136.61,301.2,136.61Z"/><path class="cls-3" d="M282,136.48,279.46,134s13.25-3.32,21.81.9c0,0,3.42,3.72,2.21,3.24A37,37,0,0,0,282,136.48Z"/><path class="cls-2" d="M290.63,144.17a5.55,5.55,0,0,0,.63,3.47c.95,1.26,0,2.76-1.69,2.18"/><path class="cls-2" d="M290.84,153.63a6.7,6.7,0,0,1-4.28-1.24"/><circle class="cls-12" cx="296.06" cy="143.53" r="0.87"/><circle class="cls-12" cx="286.17" cy="143.81" r="0.87"/><path class="cls-2" d="M298.65,141.34s-1.16-1.85-6-1.82"/><path class="cls-2" d="M287.17,139.73s-3.89-.76-5,1.78"/><path class="cls-2" d="M337.52,193.11v6.54a17,17,0,0,1,3.73-1.25c1.56,0,2.18-1.24,2.81-2.49s4.67-4.67,5.6-1.87c.27.82-.62,3.43,0,3.74s2.18-1.87,1.56-4.36-2.18-3.42-4.36-4.67-2.8-.93-3.43-.31S338.76,193.73,337.52,193.11Z"/><path class="cls-24" d="M334.53,213c-5.72,11.93-8.82,22.35-6.92,23.26s8.09-8,13.82-20,9.79-22.39,6.92-23.27C346.33,192.41,340.26,201,334.53,213Z"/><polygon class="cls-24" points="356.26 208.17 371.69 196.37 378.05 209.08 356.26 208.17"/></g><path class="cls-25" d="M375,209.14l-125-6.36a2,2,0,0,1-1.9-2V113.07a2,2,0,0,1,2-2h75.54a2,2,0,0,1,1.77,1.07l49.48,94.07A2,2,0,0,1,375,209.14Z"/><path class="cls-2" d="M248.74,219.24H278a0,0,0,0,1,0,0v3.1a3,3,0,0,1-3,3H251.74a3,3,0,0,1-3-3v-3.1A0,0,0,0,1,248.74,219.24Z" transform="translate(526.76 444.58) rotate(-180)"/><circle class="cls-2" cx="293.21" cy="328.88" r="54.73"/><circle class="cls-12" cx="293.21" cy="328.88" r="22.47"/><path class="cls-2" d="M-161.49,22.73h381V291H-11.59a68.33,68.33,0,0,0-57-30.55,68.35,68.35,0,0,0-57,30.55h-35.95Z"/><path class="cls-26" d="M370.76,215.82s-1.3,5.5-3.3,7.5"/><path class="cls-27" d="M367,178.82v37h5a7,7,0,0,0,7-7v-23a7,7,0,0,0-7-7Z"/><path class="cls-28" d="M462.24,307.75h83.84s5.41,37.86-41.92,37.86S462.24,307.75,462.24,307.75Z"/><path class="cls-29" d="M457.47,117.64c6.31-3.33,12.17-5.41,10.82-24.34-.89-12.47-17.13-26.71-16.83-45,.26-15.58,14.33-18.77,21.09-25,16.19-14.95,24.88-2,33-2s17.59,1.05,23-3,14.83,40.59,10.77,56.82-16.93,30.4-6.76,40.57c8.11,8.11,14.88,1.35,23,6.76,3.18,2.12,13.52,13.52,5.41,31.1-10.42,22.58-29.75,31.11-27.05,44.63s17.58,12.17,14.88,25.7-12.17,12.17-16.23,24.34-10.82,25.7-29.75,25.7-58.16-17.58-37.87-58.16c2.74-5.47,10.82-20.28,4.06-29.75S434.51,129.78,457.47,117.64Z"/><g class="cls-30"><rect class="cls-31" x="504.46" y="21.32" width="81" height="261"/></g><path class="cls-16" d="M457.47,117.64c6.31-3.33,12.17-5.41,10.82-24.34-.89-12.47-17.13-26.71-16.83-45,.26-15.58,14.33-18.77,21.09-25,16.19-14.95,24.88-2,33-2s17.59,1.05,23-3,14.83,40.59,10.77,56.82-16.93,30.4-6.76,40.57c8.11,8.11,14.88,1.35,23,6.76,3.18,2.12,13.52,13.52,5.41,31.1-10.42,22.58-29.75,31.11-27.05,44.63s17.58,12.17,14.88,25.7-12.17,12.17-16.23,24.34-10.82,25.7-29.75,25.7-58.16-17.58-37.87-58.16c2.74-5.47,10.82-20.28,4.06-29.75S434.51,129.78,457.47,117.64Z"/><line class="cls-7" x1="504.16" y1="306.82" x2="504.16" y2="54.32"/><path class="cls-7" d="M504.16,149.14s9.47-10.68,13.52-10.68"/><path class="cls-7" d="M504.16,194.4s-5.41-14-14.88-14"/><path class="cls-7" d="M504.16,121.9s-3.69-14-10.14-14"/><path class="cls-7" d="M504.16,242.58s2.7-12.16,10.82-12.16"/></g><rect class="cls-32" x="174.23" y="22.6" width="359.07" height="13.99"/><rect class="cls-32" x="172.89" y="269.9" width="359.07" height="13.99"/><path class="cls-8" d="M448.72,229.84s2.17-4.58,2.39-4.35,2.82,4.14,2.82,4.14S450.36,231.73,448.72,229.84Z"/><path class="cls-33" d="M484,246.51c-9.44-2.19-15.44,1.81-18.79,1.79-1.91,0-3.84-.4-4.6-4a9.14,9.14,0,0,0,1.47-2.7c2.46-7.16-2-16.33-2.23-16.55s-4.7,4.7-4.7,4.7-8.72-1.12-12.08,2.68c-3.81,4.33-2.9,8.27-2.9,8.27s-2,1.35-1.79,1.79.22,6.94,5.81,7.16c.55,0,1.14,0,1.75,0a14.77,14.77,0,0,0-3.54,7.81c-.89,5.59.23,7.6.23,7.6s-7.16-.9-7.16,4.25h60.82S498.47,249.87,484,246.51Z"/><g class="cls-34"><path class="cls-35" d="M435,274.82s21,5,28-30c6.44-32.18,40.59,6.5,38.59,16.5s-15,16-26,15S434,275.82,435,274.82Z"/></g><path class="cls-16" d="M484,246.51c-9.44-2.19-15.44,1.81-18.79,1.79-1.91,0-3.84-.4-4.6-4a9.14,9.14,0,0,0,1.47-2.7c2.46-7.16-2-16.33-2.23-16.55s-4.7,4.7-4.7,4.7-8.72-1.12-12.08,2.68c-3.81,4.33-2.9,8.27-2.9,8.27s-2,1.35-1.79,1.79.22,6.94,5.81,7.16c.55,0,1.14,0,1.75,0a14.77,14.77,0,0,0-3.54,7.81c-.89,5.59.23,7.6.23,7.6s-7.16-.9-7.16,4.25h60.82S498.47,249.87,484,246.51Z"/><path class="cls-16" d="M455.14,255.45s-6.49,2.69-6.49,9.39c0,0-9.16-1.34-9.36,4.48"/><path class="cls-16" d="M480.63,254.78s-9.17.23-9.17,10.29c0,0-7.64-1.57-8.07,4.25"/><path class="cls-8" d="M485.55,277.37a8.45,8.45,0,0,1,7.83-6.94c6.48-.44,7.38-3.13,6.48-4.91s-5-1.45-6.26-1.12c-1.79.44-11.63,2.46-13,13.19a147,147,0,0,0-.45,19.45c.45,2.46,3.81,2.69,3.81-.44A116.23,116.23,0,0,1,485.55,277.37Z"/><path class="cls-16" d="M485.55,277.37a8.45,8.45,0,0,1,7.83-6.94c6.48-.44,7.38-3.13,6.48-4.91s-5-1.45-6.26-1.12c-1.79.44-11.63,2.46-13,13.19a147,147,0,0,0-.45,19.45c.45,2.46,3.81,2.69,3.81-.44A116.23,116.23,0,0,1,485.55,277.37Z"/><line class="cls-32" x1="352.32" y1="36.82" x2="352.32" y2="77.82"/><rect class="cls-32" x="515.24" y="36.82" width="6.59" height="233.08"/><rect class="cls-32" x="183.03" y="36.82" width="6.59" height="233.08"/><rect class="cls-32" x="189.62" y="75.35" width="325.41" height="8.23"/><line class="cls-2" x1="19.36" y1="390.04" x2="723.64" y2="390.04"/><path class="cls-36" d="M399.07,367.8c7.95-5.32,55.71-18.55,57-23.84.85-3.4,2.8-11.81,3.41-13.62,4.85-14.44,8.51-23,28.94-24.18,23.82-1.39,199.65-2.64,206.84,0,10.22,3.76,8.51,43.27,6.81,58.47s-9.36,45.41-10.21,46.58-177.9-.49-231.41-4.08l-52.9,5.78Z"/><g class="cls-37"><path class="cls-38" d="M390.05,366.82l61-33c10,0,2.76,20.42,2.28,33.88-.28,8.12-.28,11.12-.28,11.12-2,1-43.5,16.5-43.5,16.5S387.05,377.82,390.05,366.82Z"/><path class="cls-38" d="M695.05,305.82s-3.13.26-6,7-5.5,20-8,46c-4.31,44.79-19,45-5,47s26.29-22,27-55C704.05,303.82,695.05,305.82,695.05,305.82Z"/></g><path class="cls-16" d="M399.07,367.8c7.95-5.32,55.71-18.55,57-23.84.85-3.4,2.8-11.81,3.41-13.62,4.85-14.44,8.51-23,28.94-24.18,23.82-1.39,199.65-2.64,206.84,0,10.22,3.76,8.51,43.27,6.81,58.47s-9.36,45.41-10.21,46.58-177.9-.49-231.41-4.08l-52.9,5.78Z"/><path class="cls-16" d="M697.91,308.26s-2.3-4.91-6.88.8c-6.8,8.52-10.55,56.37-11.06,69.8"/><path class="cls-16" d="M460.36,327.79c-5.11,11.92-7.15,37.64-7.66,51.07H680"/><path class="cls-39" d="M691.47,410.13s12.68,16.42,8.28,20.19S682.2,414.8,682.2,414.8"/><path class="cls-39" d="M426.51,425.54s-18,30.19-21.44,26.78,7.82-26.59,7.82-26.59"/><path class="cls-39" d="M607.36,434.06s18,30.19,21.44,26.79S621,434.26,621,434.26"/><path class="cls-36" d="M629.32,386.1c.45-4.11,2-13.78,12.23-13.78s57.68-19.67,57.68-19.67,8.71-3.45,8.51,5.1-1.81,42-2.66,44.52-3.41,6.81-14.47,11.92-38.31,22.13-63,21.28-205.14-6-208.54-6-17,1.7-20.43-2.55-1.71-57,0-58.74c1.9-1.9,9.36-3.4,10.21,5.11s1.7,26.39,11.92,27.24,180.45,5.11,185.56,4.25S627.32,404.58,629.32,386.1Z"/><g class="cls-40"><path class="cls-38" d="M688.55,350.32c-10.35,4.2-46.5,6.06-46.5,16.5,0,8.56-2.74,43.89-5,62-1,8-4.2,6.79-6,8-6,4,63-11,73.5-27.5,4.19-6.59,15.5-47.5,12.5-56.5S703.19,344.36,688.55,350.32Z"/></g><path class="cls-16" d="M629.32,386.1c.45-4.11,2-13.78,12.23-13.78s57.68-19.67,57.68-19.67,8.71-3.45,8.51,5.1-1.81,42-2.66,44.52-3.41,6.81-14.47,11.92-38.31,22.13-63,21.28-205.14-6-208.54-6-17,1.7-20.43-2.55-1.71-57,0-58.74c1.9-1.9,9.36-3.4,10.21,5.11s1.7,26.39,11.92,27.24,180.45,5.11,185.56,4.25S627.32,404.58,629.32,386.1Z"/><line class="cls-16" x1="691.74" y1="413.66" x2="679.19" y2="419.98"/><line class="cls-16" x1="623.03" y1="435.5" x2="604.71" y2="434.76"/><line class="cls-16" x1="420.51" y1="429.54" x2="406.89" y2="429.73"/><line class="cls-16" x1="450.55" y1="380.32" x2="416.95" y2="392.48"/><path class="cls-12" d="M574.79,241.22s-9.55-1.05-8.67-8.95,8.77-6.14,10.53-5.26c0,0,11.4-9.65,21.05,3.51,0,0,16.23-1.32,16.67,11.4a22.38,22.38,0,0,1-1.76,7.9s11.41,3.51,4.39,11.4c0,0-3.51,3.51-5.26,1.76,0,0,3,12.07-7.9,8.77a11.75,11.75,0,0,1-3.51-2.63c-.88-.88-4.66,5.47-9.35,1s-10.15-29.59-16.19-28.88"/><path class="cls-2" d="M596.82,284s-7-14-6.14-16.67,1.76-3.51,4.39-3.51,6.14-1.75,5.26-7.89-6.14-2.63-6.14-2.63a4.32,4.32,0,0,1-5-3.55c-.39-1.55,4.51-6.32,0-8.58-1.76-.88-2.31.93-4.69.72-2.75-.23-5.79-4-7.89-2.63-5.27,3.51,2.63,4.39-9.65,11.41-.85.48,0,2.63,1.75,3.51s-2.23,10,0,12.28c1.92,1.91,5.26,2.63,10.53,1.75,0,0,0,9.65-4.39,13.16s-7.89,4.39-7.89,6.14,5.26,14.91,17.54,10.53S599.45,289.29,596.82,284Z"/><path class="cls-12" d="M561.73,301.58c-7.89,11.4-6.5,18.22-4.38,24.56,2.63,7.89-2,16.39-2,16.39,19.3,12.28,43.68,6.22,45.44,2.71s5.67-23.49,25.85-33.14c9.66-4.62,11.4-16.66,9.65-19.3s-13.16,1.76-20.18-4.38-17.44-5.05-18.32-4.18c-1.39,1.39-3,9-17,8a17.09,17.09,0,0,1-12-7c-1-1.51-15,2-20,8-4.83,5.8-25.66,14.48-30.93,16.23s15.66,5.77,20.93,5.77,15.37-3.24,18-5"/><path class="cls-16" d="M561.73,301.58c-7.89,11.4-6.5,18.22-4.38,24.56,2.63,7.89-2,16.39-2,16.39,19.3,12.28,43.68,6.22,45.44,2.71s5.67-23.49,25.85-33.14c9.66-4.62,11.4-16.66,9.65-19.3s-13.16,1.76-20.18-4.38-17.44-5.05-18.32-4.18c-1.39,1.39-3,9-17,8a17.09,17.09,0,0,1-12-7c-1-1.51-15,2-20,8-4.83,5.8-25.66,14.48-30.93,16.23s15.66,5.77,20.93,5.77,15.37-3.24,18-5"/><path class="cls-41" d="M612.61,383.16s9.18-15.29-9.25-48.63c-14.85-26.88-9.33-4.29-46,10-6.58,2.57-41.24,28.1-43,29.86s-9.65,10.52-1.75,18.42,45.61,4.38,57,2.63c3.81-.59,16.67-1.75,18.42-1.75s24.56-10.53,24.56-10.53"/><g class="cls-42"><path class="cls-43" d="M582.86,337S566.86,373,560,382c0,0,15,0,34,1,7.83.41,12.8,15.24,17.8,8.24s9-14,7-24-17.68-45.9-23.94-46.21S582.86,337,582.86,337Z"/></g><path class="cls-16" d="M612.61,383.16s9.18-15.29-9.25-48.63c-14.85-26.88-9.33-4.29-46,10-6.58,2.57-41.24,28.1-43,29.86s-9.65,10.52-1.75,18.42,45.61,4.38,57,2.63c3.81-.59,16.67-1.75,18.42-1.75s24.56-10.53,24.56-10.53"/><path class="cls-41" d="M572,382.28c10.74-10.75,40.07-46.13,22.68-58.23s-28.73,11.35-31,31.76-6.22,25.51-4.54,25.72A122.1,122.1,0,0,0,572,382.28Z"/><g class="cls-44"><path class="cls-43" d="M589,315a54.69,54.69,0,0,1-6.46,35.77c-8.56,15-23.71,35.78-22,38.36s19.82-2.58,24.13-9.48,26.73-41.38,20.69-53.44S590.69,314.15,589,315Z"/></g><path class="cls-16" d="M572,382.28c10.74-10.75,40.07-46.13,22.68-58.23s-28.73,11.35-31,31.76-6.22,25.51-4.54,25.72A122.1,122.1,0,0,0,572,382.28Z"/><path class="cls-2" d="M593.31,312.1c4.85-1.69,6.32-.33,17.38-9.86s26.46-13.46,33.27-9.11,7.79,11.31,4.56,13.54-7.45,3.7-20.72,3.8-17.56,2-24,6c-7,4.38-11,13.44-11.4,12.28s1.13-4.28,1.75-6.14-4.27,6.89-5.26,6.14,4-8.09,4-8.09-7.66,9.11-8.37,8.09c-1.11-1.62,5.52-9.46,5.52-9.46s-6.09,7.06-7.08,6.31S589.09,313.58,593.31,312.1Z"/><path class="cls-2" d="M564.71,333.11c-1.58-3.91-2.61-9-10.59-13.16s-19.24-15.63-33.18-12.51-3.92,18.87,17.83,18.29,19,21.53,20.67,21.35.06-7.55.06-7.55,1.69,8.21,3.35,8c.83-.08-1.5-6.36-1.69-8.21-.08-.83,3.44,8.87,4.27,8.78s-1.86-9.87-1.86-9.87,3.35,8,4.18,8S566.39,337.28,564.71,333.11Z"/><path class="cls-12" d="M597.26,230.08s9.8-12.79,18.42-5.26,2.76,15.69-.51,18.24C610.22,246.92,597.22,246.29,597.26,230.08Z"/><path class="cls-45" d="M600.36,231.36s7.9-.83,13.1,8.85"/><path class="cls-2" d="M584.5,382.28c15,2.33,27.83-2.63,30.83,5.26s-14.29,7-18.05,7-10.11-.87-9.78-1.75C589.25,388.19,582.77,382,584.5,382.28Z"/><path class="cls-16" d="M600.74,383s6.61,2.83,5.73,7.22c-.71,3.54-5.26,4.38-5.26,4.38"/><path class="cls-16" d="M584.54,382.28s-27.19,1.76-45.61-4.38"/><path class="cls-2" d="M568.86,259.42a7.43,7.43,0,0,0,5.36,0"/><circle class="cls-12" cx="577.97" cy="248.17" r="1.07"/><path class="cls-16" d="M581,243.82a3.79,3.79,0,0,1,2.22,3.16"/><polygon class="cls-46" points="168.94 253.82 152.98 256.26 152.98 394.47 233.94 394.47 249.9 392.02 249.9 253.82 168.94 253.82"/><g class="cls-47"><polygon class="cls-48" points="143.54 251.82 143.54 257.32 234.04 257.32 234.04 396.82 253.04 396.82 254.04 251.82 143.54 251.82"/></g><polygon class="cls-16" points="168.94 253.82 152.98 256.26 152.98 394.47 233.94 394.47 249.9 392.02 249.9 253.82 168.94 253.82"/><polygon class="cls-46" points="96.79 324.06 80.82 326.2 80.82 405.45 158.36 406.16 174.32 403.88 174.32 324.06 96.79 324.06"/><g class="cls-49"><polygon class="cls-48" points="78.55 326.82 159.04 326.82 159.04 420.32 179.54 420.32 179.54 320.32 80.55 320.32 78.55 326.82"/></g><polygon class="cls-16" points="96.79 324.06 80.82 326.2 80.82 405.45 158.36 406.16 174.32 403.88 174.32 324.06 96.79 324.06"/><polygon class="cls-46" points="259.74 359.74 160.03 359.74 142.35 362.26 142.35 427.89 242.7 427.89 259.74 425.37 259.74 359.74"/><g class="cls-50"><polygon class="cls-48" points="137.54 362.82 242.54 362.82 242.54 431.32 264.55 431.32 264.55 354.32 138.54 354.32 137.54 362.82"/></g><polygon class="cls-16" points="259.74 359.74 160.03 359.74 142.35 362.26 142.35 427.89 242.7 427.89 259.74 425.37 259.74 359.74"/><rect class="cls-48" x="114.42" y="326.82" width="11.03" height="5"/><rect class="cls-48" x="188" y="257.29" width="11.03" height="7.52"/><rect class="cls-48" x="186.94" y="362.82" width="11.03" height="6.52"/><path class="cls-51" d="M43.59,419.73s-6.8,6.08-3.3,6.45c1.06.12,17.42,5.28,40.43,10.3,27.53,6,64.94,11.6,93.64,17.89,26.37,5.77,45.68,11,46.35,11,2,.15,25.59-10.8,17.39-52.53"/><path class="cls-51" d="M235.38,408.44s-35.37-5.42-47.2-7c-21.47-2.82-64.57-7.44-86-10.73-13.8-2.13-55-10.08-55-10.08a9.63,9.63,0,0,0-1.22-.12c-3.8.21-8.61,9.33-10.13,20-1.4,9.8-.45,18.58,2.55,20.83a4.33,4.33,0,0,0,1.46.72c.27,0,183.71,37.45,183.71,37.45Z"/><ellipse class="cls-9" cx="229.22" cy="433.97" rx="26.25" ry="8.97" transform="translate(-243.19 567) rotate(-77.88)"/><path class="cls-9" d="M224.57,459.7c12.76-7.43,12.16-40.59,7.63-41.28S224,436.94,224,443.71c.12,14.45,8.12,3.73,7.52-14.26l-5-.83"/></g></g></svg>